<svg width="12" height="13" fill="none" xmlns="http://www.w3.org/2000/svg"><path d="M6 .688C2.79.688.187 3.313.187 6.5A5.811 5.811 0 006 12.313c3.188 0 5.813-2.602 5.813-5.813C11.813 3.312 9.187.687 6 .687zm0 10.5A4.671 4.671 0 011.312 6.5 4.686 4.686 0 016 1.812 4.701 4.701 0 0110.688 6.5 4.686 4.686 0 016 11.188zM8.508 8.82a.266.266 0 00.07-.187.339.339 0 00-.047-.164l-.469-.633c-.093-.14-.28-.164-.421-.047-.211.188-.774.633-1.524.633-1.219 0-1.851-.985-1.851-1.945 0-1.055.703-1.899 1.828-1.899.703 0 1.242.375 1.453.54.117.093.328.07.398-.071l.446-.656c.023-.047.046-.094.046-.164s-.046-.141-.093-.188c-.211-.21-.985-.82-2.297-.82-1.852 0-3.281 1.406-3.281 3.258 0 1.875 1.359 3.328 3.304 3.328 1.36 0 2.203-.75 2.438-.985z" fill="#fff"/></svg>